<mxfile host="app.diagrams.net" agent="Mozilla/5.0 (Windows NT 10.0; Win64; x64) AppleWebKit/537.36 (KHTML, like Gecko) Chrome/128.0.0.0 Safari/537.36" version="24.7.8">
  <diagram name="Página-1" id="-P79NFvOpm1MDNs4cjNi">
    <mxGraphModel dx="1434" dy="738" grid="1" gridSize="10" guides="1" tooltips="1" connect="1" arrows="1" fold="1" page="1" pageScale="1" pageWidth="827" pageHeight="1169" math="0" shadow="0">
      <root>
        <mxCell id="0" />
        <mxCell id="1" parent="0" />
        <mxCell id="mvEV2K7xjus6Djp_tHI3-1" value="&lt;font style=&quot;font-size: 14px;&quot;&gt;Cliente&lt;/font&gt;" style="swimlane;fontStyle=1;align=center;verticalAlign=top;childLayout=stackLayout;horizontal=1;startSize=26;horizontalStack=0;resizeParent=1;resizeParentMax=0;resizeLast=0;collapsible=1;marginBottom=0;whiteSpace=wrap;html=1;" vertex="1" parent="1">
          <mxGeometry x="50" y="210" width="270" height="110" as="geometry" />
        </mxCell>
        <mxCell id="mvEV2K7xjus6Djp_tHI3-2" value="&lt;font style=&quot;font-size: 13px;&quot;&gt;&lt;strong&gt;Atributos&lt;/strong&gt;: nome, email, endereço, telefone&lt;/font&gt;" style="text;strokeColor=none;fillColor=none;align=left;verticalAlign=top;spacingLeft=4;spacingRight=4;overflow=hidden;rotatable=0;points=[[0,0.5],[1,0.5]];portConstraint=eastwest;whiteSpace=wrap;html=1;" vertex="1" parent="mvEV2K7xjus6Djp_tHI3-1">
          <mxGeometry y="26" width="270" height="26" as="geometry" />
        </mxCell>
        <mxCell id="mvEV2K7xjus6Djp_tHI3-3" value="" style="line;strokeWidth=1;fillColor=none;align=left;verticalAlign=middle;spacingTop=-1;spacingLeft=3;spacingRight=3;rotatable=0;labelPosition=right;points=[];portConstraint=eastwest;strokeColor=inherit;" vertex="1" parent="mvEV2K7xjus6Djp_tHI3-1">
          <mxGeometry y="52" width="270" height="8" as="geometry" />
        </mxCell>
        <mxCell id="mvEV2K7xjus6Djp_tHI3-4" value="&lt;font style=&quot;font-size: 13px;&quot;&gt;&lt;strong&gt;Métodos&lt;/strong&gt;: realizarPedido(), acompanharPedido(), avaliarRestaurante()&lt;/font&gt;" style="text;strokeColor=none;fillColor=none;align=left;verticalAlign=top;spacingLeft=4;spacingRight=4;overflow=hidden;rotatable=0;points=[[0,0.5],[1,0.5]];portConstraint=eastwest;whiteSpace=wrap;html=1;" vertex="1" parent="mvEV2K7xjus6Djp_tHI3-1">
          <mxGeometry y="60" width="270" height="50" as="geometry" />
        </mxCell>
        <mxCell id="mvEV2K7xjus6Djp_tHI3-5" value="&lt;font style=&quot;font-size: 14px;&quot;&gt;Pedido&lt;/font&gt;" style="swimlane;fontStyle=1;align=center;verticalAlign=top;childLayout=stackLayout;horizontal=1;startSize=26;horizontalStack=0;resizeParent=1;resizeParentMax=0;resizeLast=0;collapsible=1;marginBottom=0;whiteSpace=wrap;html=1;" vertex="1" parent="1">
          <mxGeometry x="480" y="210" width="270" height="110" as="geometry" />
        </mxCell>
        <mxCell id="mvEV2K7xjus6Djp_tHI3-6" value="&lt;font style=&quot;font-size: 13px;&quot;&gt;&lt;strong&gt;Atributos&lt;/strong&gt;: id, cliente, restaurante, itens, status, data&lt;/font&gt;" style="text;strokeColor=none;fillColor=none;align=left;verticalAlign=top;spacingLeft=4;spacingRight=4;overflow=hidden;rotatable=0;points=[[0,0.5],[1,0.5]];portConstraint=eastwest;whiteSpace=wrap;html=1;" vertex="1" parent="mvEV2K7xjus6Djp_tHI3-5">
          <mxGeometry y="26" width="270" height="44" as="geometry" />
        </mxCell>
        <mxCell id="mvEV2K7xjus6Djp_tHI3-7" value="" style="line;strokeWidth=1;fillColor=none;align=left;verticalAlign=middle;spacingTop=-1;spacingLeft=3;spacingRight=3;rotatable=0;labelPosition=right;points=[];portConstraint=eastwest;strokeColor=inherit;" vertex="1" parent="mvEV2K7xjus6Djp_tHI3-5">
          <mxGeometry y="70" width="270" height="8" as="geometry" />
        </mxCell>
        <mxCell id="mvEV2K7xjus6Djp_tHI3-8" value="&lt;font style=&quot;font-size: 13px;&quot;&gt;&lt;strong&gt;Métodos&lt;/strong&gt;: atualizarStatus()&lt;/font&gt;" style="text;strokeColor=none;fillColor=none;align=left;verticalAlign=top;spacingLeft=4;spacingRight=4;overflow=hidden;rotatable=0;points=[[0,0.5],[1,0.5]];portConstraint=eastwest;whiteSpace=wrap;html=1;" vertex="1" parent="mvEV2K7xjus6Djp_tHI3-5">
          <mxGeometry y="78" width="270" height="32" as="geometry" />
        </mxCell>
        <mxCell id="mvEV2K7xjus6Djp_tHI3-9" value="&lt;font style=&quot;font-size: 14px;&quot;&gt;Restaurante&lt;/font&gt;" style="swimlane;fontStyle=1;align=center;verticalAlign=top;childLayout=stackLayout;horizontal=1;startSize=26;horizontalStack=0;resizeParent=1;resizeParentMax=0;resizeLast=0;collapsible=1;marginBottom=0;whiteSpace=wrap;html=1;" vertex="1" parent="1">
          <mxGeometry x="910" y="210" width="270" height="110" as="geometry" />
        </mxCell>
        <mxCell id="mvEV2K7xjus6Djp_tHI3-10" value="&lt;font style=&quot;font-size: 13px;&quot;&gt;&lt;strong&gt;Atributos&lt;/strong&gt;: nome, endereço, menu&lt;/font&gt;" style="text;strokeColor=none;fillColor=none;align=left;verticalAlign=top;spacingLeft=4;spacingRight=4;overflow=hidden;rotatable=0;points=[[0,0.5],[1,0.5]];portConstraint=eastwest;whiteSpace=wrap;html=1;" vertex="1" parent="mvEV2K7xjus6Djp_tHI3-9">
          <mxGeometry y="26" width="270" height="26" as="geometry" />
        </mxCell>
        <mxCell id="mvEV2K7xjus6Djp_tHI3-11" value="" style="line;strokeWidth=1;fillColor=none;align=left;verticalAlign=middle;spacingTop=-1;spacingLeft=3;spacingRight=3;rotatable=0;labelPosition=right;points=[];portConstraint=eastwest;strokeColor=inherit;" vertex="1" parent="mvEV2K7xjus6Djp_tHI3-9">
          <mxGeometry y="52" width="270" height="8" as="geometry" />
        </mxCell>
        <mxCell id="mvEV2K7xjus6Djp_tHI3-12" value="&lt;font style=&quot;font-size: 13px;&quot;&gt;&lt;strong&gt;Métodos&lt;/strong&gt;: gerenciarMenu(), processarPedido()&lt;/font&gt;" style="text;strokeColor=none;fillColor=none;align=left;verticalAlign=top;spacingLeft=4;spacingRight=4;overflow=hidden;rotatable=0;points=[[0,0.5],[1,0.5]];portConstraint=eastwest;whiteSpace=wrap;html=1;" vertex="1" parent="mvEV2K7xjus6Djp_tHI3-9">
          <mxGeometry y="60" width="270" height="50" as="geometry" />
        </mxCell>
        <mxCell id="mvEV2K7xjus6Djp_tHI3-13" value="&lt;font style=&quot;font-size: 14px;&quot;&gt;Administrador&lt;/font&gt;" style="swimlane;fontStyle=1;align=center;verticalAlign=top;childLayout=stackLayout;horizontal=1;startSize=26;horizontalStack=0;resizeParent=1;resizeParentMax=0;resizeLast=0;collapsible=1;marginBottom=0;whiteSpace=wrap;html=1;" vertex="1" parent="1">
          <mxGeometry x="50" y="440" width="270" height="100" as="geometry" />
        </mxCell>
        <mxCell id="mvEV2K7xjus6Djp_tHI3-14" value="&lt;font style=&quot;font-size: 13px;&quot;&gt;&lt;strong&gt;Atributos&lt;/strong&gt;: nome, email&lt;/font&gt;" style="text;strokeColor=none;fillColor=none;align=left;verticalAlign=top;spacingLeft=4;spacingRight=4;overflow=hidden;rotatable=0;points=[[0,0.5],[1,0.5]];portConstraint=eastwest;whiteSpace=wrap;html=1;" vertex="1" parent="mvEV2K7xjus6Djp_tHI3-13">
          <mxGeometry y="26" width="270" height="26" as="geometry" />
        </mxCell>
        <mxCell id="mvEV2K7xjus6Djp_tHI3-15" value="" style="line;strokeWidth=1;fillColor=none;align=left;verticalAlign=middle;spacingTop=-1;spacingLeft=3;spacingRight=3;rotatable=0;labelPosition=right;points=[];portConstraint=eastwest;strokeColor=inherit;" vertex="1" parent="mvEV2K7xjus6Djp_tHI3-13">
          <mxGeometry y="52" width="270" height="8" as="geometry" />
        </mxCell>
        <mxCell id="mvEV2K7xjus6Djp_tHI3-16" value="&lt;font style=&quot;font-size: 13px;&quot;&gt;&lt;strong&gt;Métodos&lt;/strong&gt;: gerenciarUsuarios()&lt;/font&gt;" style="text;strokeColor=none;fillColor=none;align=left;verticalAlign=top;spacingLeft=4;spacingRight=4;overflow=hidden;rotatable=0;points=[[0,0.5],[1,0.5]];portConstraint=eastwest;whiteSpace=wrap;html=1;" vertex="1" parent="mvEV2K7xjus6Djp_tHI3-13">
          <mxGeometry y="60" width="270" height="40" as="geometry" />
        </mxCell>
        <mxCell id="mvEV2K7xjus6Djp_tHI3-17" value="&lt;font style=&quot;font-size: 14px;&quot;&gt;Entregador&lt;/font&gt;" style="swimlane;fontStyle=1;align=center;verticalAlign=top;childLayout=stackLayout;horizontal=1;startSize=26;horizontalStack=0;resizeParent=1;resizeParentMax=0;resizeLast=0;collapsible=1;marginBottom=0;whiteSpace=wrap;html=1;" vertex="1" parent="1">
          <mxGeometry x="480" y="10" width="270" height="110" as="geometry" />
        </mxCell>
        <mxCell id="mvEV2K7xjus6Djp_tHI3-18" value="&lt;font style=&quot;font-size: 13px;&quot;&gt;&lt;strong&gt;Atributos&lt;/strong&gt;: nome, veículo, pedidos&lt;/font&gt;" style="text;strokeColor=none;fillColor=none;align=left;verticalAlign=top;spacingLeft=4;spacingRight=4;overflow=hidden;rotatable=0;points=[[0,0.5],[1,0.5]];portConstraint=eastwest;whiteSpace=wrap;html=1;" vertex="1" parent="mvEV2K7xjus6Djp_tHI3-17">
          <mxGeometry y="26" width="270" height="26" as="geometry" />
        </mxCell>
        <mxCell id="mvEV2K7xjus6Djp_tHI3-19" value="" style="line;strokeWidth=1;fillColor=none;align=left;verticalAlign=middle;spacingTop=-1;spacingLeft=3;spacingRight=3;rotatable=0;labelPosition=right;points=[];portConstraint=eastwest;strokeColor=inherit;" vertex="1" parent="mvEV2K7xjus6Djp_tHI3-17">
          <mxGeometry y="52" width="270" height="8" as="geometry" />
        </mxCell>
        <mxCell id="mvEV2K7xjus6Djp_tHI3-20" value="&lt;font style=&quot;font-size: 13px;&quot;&gt;&lt;strong&gt;Métodos&lt;/strong&gt;: visualizarPedidos(), confirmarEntrega()&lt;/font&gt;" style="text;strokeColor=none;fillColor=none;align=left;verticalAlign=top;spacingLeft=4;spacingRight=4;overflow=hidden;rotatable=0;points=[[0,0.5],[1,0.5]];portConstraint=eastwest;whiteSpace=wrap;html=1;" vertex="1" parent="mvEV2K7xjus6Djp_tHI3-17">
          <mxGeometry y="60" width="270" height="50" as="geometry" />
        </mxCell>
        <mxCell id="mvEV2K7xjus6Djp_tHI3-21" value="&lt;font style=&quot;font-size: 14px;&quot;&gt;ItemMenu&lt;/font&gt;" style="swimlane;fontStyle=1;align=center;verticalAlign=top;childLayout=stackLayout;horizontal=1;startSize=26;horizontalStack=0;resizeParent=1;resizeParentMax=0;resizeLast=0;collapsible=1;marginBottom=0;whiteSpace=wrap;html=1;" vertex="1" parent="1">
          <mxGeometry x="480" y="440" width="270" height="100" as="geometry" />
        </mxCell>
        <mxCell id="mvEV2K7xjus6Djp_tHI3-22" value="&lt;font style=&quot;font-size: 13px;&quot;&gt;&lt;strong&gt;Atributos&lt;/strong&gt;: nome, descrição, preço&lt;/font&gt;" style="text;strokeColor=none;fillColor=none;align=left;verticalAlign=top;spacingLeft=4;spacingRight=4;overflow=hidden;rotatable=0;points=[[0,0.5],[1,0.5]];portConstraint=eastwest;whiteSpace=wrap;html=1;" vertex="1" parent="mvEV2K7xjus6Djp_tHI3-21">
          <mxGeometry y="26" width="270" height="26" as="geometry" />
        </mxCell>
        <mxCell id="mvEV2K7xjus6Djp_tHI3-23" value="" style="line;strokeWidth=1;fillColor=none;align=left;verticalAlign=middle;spacingTop=-1;spacingLeft=3;spacingRight=3;rotatable=0;labelPosition=right;points=[];portConstraint=eastwest;strokeColor=inherit;" vertex="1" parent="mvEV2K7xjus6Djp_tHI3-21">
          <mxGeometry y="52" width="270" height="8" as="geometry" />
        </mxCell>
        <mxCell id="mvEV2K7xjus6Djp_tHI3-24" value="&lt;font style=&quot;font-size: 13px;&quot;&gt;&lt;strong&gt;Métodos&lt;/strong&gt;: adicionarAoPedido()&lt;/font&gt;" style="text;strokeColor=none;fillColor=none;align=left;verticalAlign=top;spacingLeft=4;spacingRight=4;overflow=hidden;rotatable=0;points=[[0,0.5],[1,0.5]];portConstraint=eastwest;whiteSpace=wrap;html=1;" vertex="1" parent="mvEV2K7xjus6Djp_tHI3-21">
          <mxGeometry y="60" width="270" height="40" as="geometry" />
        </mxCell>
        <mxCell id="mvEV2K7xjus6Djp_tHI3-25" value="" style="endArrow=block;startArrow=block;endFill=1;startFill=1;html=1;rounded=0;" edge="1" parent="1">
          <mxGeometry width="160" relative="1" as="geometry">
            <mxPoint x="320" y="264.5" as="sourcePoint" />
            <mxPoint x="480" y="264.5" as="targetPoint" />
          </mxGeometry>
        </mxCell>
        <mxCell id="mvEV2K7xjus6Djp_tHI3-26" value="" style="endArrow=block;startArrow=block;endFill=1;startFill=1;html=1;rounded=0;" edge="1" parent="1">
          <mxGeometry width="160" relative="1" as="geometry">
            <mxPoint x="750" y="264.5" as="sourcePoint" />
            <mxPoint x="910" y="264.5" as="targetPoint" />
          </mxGeometry>
        </mxCell>
        <mxCell id="mvEV2K7xjus6Djp_tHI3-31" value="1" style="endArrow=open;html=1;endSize=12;startArrow=diamondThin;startSize=14;startFill=1;edgeStyle=orthogonalEdgeStyle;align=left;verticalAlign=bottom;rounded=0;entryX=0.5;entryY=0;entryDx=0;entryDy=0;" edge="1" parent="1" target="mvEV2K7xjus6Djp_tHI3-21">
          <mxGeometry x="-1" y="3" relative="1" as="geometry">
            <mxPoint x="615" y="340" as="sourcePoint" />
            <mxPoint x="690" y="380" as="targetPoint" />
            <Array as="points">
              <mxPoint x="615" y="370" />
              <mxPoint x="615" y="370" />
            </Array>
          </mxGeometry>
        </mxCell>
        <mxCell id="mvEV2K7xjus6Djp_tHI3-32" value="" style="endArrow=block;startArrow=block;endFill=1;startFill=1;html=1;rounded=0;exitX=0.426;exitY=1.02;exitDx=0;exitDy=0;exitPerimeter=0;entryX=0.5;entryY=0;entryDx=0;entryDy=0;" edge="1" parent="1" target="mvEV2K7xjus6Djp_tHI3-5">
          <mxGeometry width="160" relative="1" as="geometry">
            <mxPoint x="614.5" y="120" as="sourcePoint" />
            <mxPoint x="614.5" y="205.03999999999996" as="targetPoint" />
          </mxGeometry>
        </mxCell>
      </root>
    </mxGraphModel>
  </diagram>
</mxfile>
